# xmcd
#
# Track frame offsets:
#	150
#	16102
#	32107
#	50107
#	64787
#	90075
#	105137
#	124585
#	144015
#	160092
#	179487
#	197502
#	223742
#	239875
#	251267
#	268755
#	287087
#	306927
#
# Disc length: 4451 seconds
#
# Revision: 0
# Processed by: cddbd v1.5.2PL0 Copyright (c) Steve Scherf et al.
# Submitted via: EasyCDDAExtractor 2010.6.0.0
#
DISCID=f5116112
DTITLE=Julio Iglesias - My Life: The Greatest Hits
DYEAR=1998
DGENRE=Pop
TTITLE0=To All The Girls I've Loved Before (feat. Willie Nelson)
TTITLE1=Moralito (La Gota Fría)
TTITLE2=All Of You (feat. Diana Ross)
TTITLE3=Crazy
TTITLE4=My Love (feat. Stevie Wonder)
TTITLE5=Can't Help Falling In Love
TTITLE6=Vincent (Starry Starry Night)
TTITLE7=When I Need You
TTITLE8=Crazy In Love
TTITLE9=Fragile (feat. Sting)
TTITLE10=When You Tell Me That You Love Me (feat. Dolly Parton)
TTITLE11=Caruso
TTITLE12=Smoke Gets In Your Eyes (feat. All-4-One)
TTITLE13=Summer Wind (feat. Frank Sinatra)
TTITLE14=Por El Amor De Una Mujer
TTITLE15=Moonlight Lady
TTITLE16=My Way (A Mi Manera) (feat. Paul Anka)
TTITLE17=Me Va, Me Va
EXTD=
EXTT0=
EXTT1=
EXTT2=
EXTT3=
EXTT4=
EXTT5=
EXTT6=
EXTT7=
EXTT8=
EXTT9=
EXTT10=
EXTT11=
EXTT12=
EXTT13=
EXTT14=
EXTT15=
EXTT16=
EXTT17=
PLAYORDER=
